<?xml version="1.0" encoding="utf-8"?>
<!-- Generator: Adobe Illustrator 26.1.0, SVG Export Plug-In . SVG Version: 6.00 Build 0)  -->
<svg version="1.1" id="none" xmlns:svgjs="http://svgjs.dev/svgjs"
	 xmlns="http://www.w3.org/2000/svg" xmlns:xlink="http://www.w3.org/1999/xlink" x="0px" y="0px" viewBox="0 0 2000 1500"
	 style="enable-background:new 0 0 2000 1500;" xml:space="preserve">
<style type="text/css">
	.st0{fill:#FFFFFF;}
	.st1{display:none;fill:none;}
	.st2{fill:#870040;}
</style>
<rect x="750" y="562.5" class="st0" width="500" height="375"/>
<g>
	<g transform="matrix(2.7190064223799633, 0, 0, 2.7190064223799633, 73.95276048464336, 1)">
		<path class="st0" d="M378.9,311.7v-49.5h4.2v-6.4h-6.9l-36.5-22.9l-35.5,22.9h-7.1v6.4h4.2v49.5h-3.8v6.5h3.8h77.5h4.4v-6.5H378.9
			L378.9,311.7z M339.8,238.6l28.4,17.2h-55.9L339.8,238.6z M372.8,315.3h-64.6v-3.1h8v-2.6h8.2v-2.9H357v2.9h8.5v2.6h7.3V315.3
			L372.8,315.3z M307.5,309.6v-40.5h6.8v40.5H307.5L307.5,309.6z M327.2,279.1v-2.9h26.5v2.9H327.2z M353.6,281.3v22.6h-12.2v-22.6
			H353.6z M339.6,281.3v22.6h-12.2v-22.6H339.6z M373.1,309.9H367v-40.9h6.1V309.9L373.1,309.9z M375.3,266.5h-70.7v-4.3h70.7V266.5
			z"/>
		<g>
			<path class="st0" d="M339.4,253c-1.6-0.1-2.9-0.8-3.6-1.7l0.8-1c0.6,0.7,1.6,1.4,2.9,1.5V248c-1.6-0.4-3.3-1-3.3-2.9
				c0-1.6,1.4-2.8,3.3-2.9v-1.5h1v1.5c1.3,0.1,2.4,0.6,3.1,1.4l-0.8,1c-0.6-0.7-1.5-1.1-2.3-1.2v3.5c1.6,0.4,3.4,1.1,3.4,3.1
				c0,1.4-0.9,2.9-3.4,3.1v1.4h-1V253L339.4,253z M339.4,246.5v-3.2c-1.2,0.1-1.9,0.7-1.9,1.7C337.5,245.9,338.3,246.2,339.4,246.5z
				 M340.4,248.3v3.6c1.5-0.1,2-1.1,2-1.8C342.4,249,341.5,248.6,340.4,248.3z"/>
		</g>
	</g>
</g>
<rect x="250.3" y="282.4" class="st1" width="1497.6" height="936"/>
<g transform="matrix(1,0,0,1,39.55199999999999,88.31000773965195)">
	<g>
		<g>
			<g>
				<g id="textblocktransform">
					<g>
						<g transform="matrix(1,0,0,1,0,0)">
							<path id="text-0" class="st2" d="M822.5,663.3h-5.6v-30.5h6.6l9.7,19.4l9.6-19.4h6.6v30.5h-5.6v-21.1l-8.5,16.7H831
								l-8.5-16.7L822.5,663.3L822.5,663.3z M862.7,663.8L862.7,663.8c-1.9,0-3.4-0.3-4.6-0.9c-1.2-0.6-2.1-1.4-2.7-2.4
								c-0.6-1-0.9-2.1-0.9-3.3l0,0c0-2,0.8-3.6,2.4-4.9s3.9-1.9,7.1-1.9l0,0h5.5V650c0-1.5-0.4-2.6-1.3-3.3s-1.9-1-3.1-1l0,0
								c-1.1,0-2.1,0.3-3,0.8c-0.8,0.5-1.4,1.3-1.6,2.4l0,0h-5.4c0.1-1.6,0.7-2.9,1.6-4.1c0.9-1.2,2.1-2.1,3.5-2.7
								c1.5-0.6,3.1-0.9,4.9-0.9l0,0c3.1,0,5.5,0.8,7.3,2.3c1.8,1.6,2.6,3.7,2.6,6.6l0,0v13.3h-4.8l-0.5-3.5
								c-0.7,1.2-1.5,2.1-2.7,2.9C866,663.4,864.5,663.8,862.7,663.8z M864,659.4L864,659.4c1.6,0,2.8-0.5,3.7-1.6
								c0.9-1,1.5-2.3,1.7-3.9l0,0h-4.8c-1.5,0-2.5,0.3-3.2,0.8c-0.6,0.6-1,1.2-1,2l0,0c0,0.9,0.3,1.5,1,2
								C862.1,659.2,863,659.4,864,659.4z M886,663.3h-5.6v-21.7h5l0.5,4c0.8-1.4,1.9-2.5,3.2-3.3c1.3-0.8,3-1.2,4.8-1.2l0,0v6h-1.6
								c-1.2,0-2.3,0.2-3.3,0.6s-1.7,1-2.2,2c-0.5,0.9-0.8,2.2-0.8,3.9l0,0V663.3z M905.2,663.8L905.2,663.8c-1.9,0-3.4-0.3-4.6-0.9
								c-1.2-0.6-2.1-1.4-2.6-2.4c-0.6-1-0.9-2.1-0.9-3.3l0,0c0-2,0.8-3.6,2.3-4.9s3.9-1.9,7.1-1.9l0,0h5.5V650
								c0-1.5-0.4-2.6-1.3-3.3c-0.8-0.7-1.9-1-3.1-1l0,0c-1.1,0-2.1,0.3-3,0.8c-0.8,0.5-1.4,1.3-1.6,2.4l0,0h-5.4
								c0.2-1.6,0.7-2.9,1.6-4.1c0.9-1.2,2.1-2.1,3.5-2.7s3.1-0.9,4.9-0.9l0,0c3.1,0,5.5,0.8,7.3,2.3c1.8,1.6,2.7,3.7,2.7,6.6l0,0
								v13.3h-4.8l-0.5-3.5c-0.6,1.2-1.5,2.1-2.7,2.9C908.5,663.4,907,663.8,905.2,663.8z M906.4,659.4L906.4,659.4
								c1.6,0,2.8-0.5,3.7-1.6s1.5-2.3,1.7-3.9l0,0h-4.8c-1.5,0-2.5,0.3-3.2,0.8c-0.6,0.6-1,1.2-1,2l0,0c0,0.9,0.3,1.5,1,2
								C904.5,659.2,905.4,659.4,906.4,659.4z M936,663.3h-3.8c-2.3,0-4.1-0.6-5.5-1.7s-2-3.1-2-5.9l0,0v-9.4H921v-4.7h3.7l0.7-5.8
								h4.9v5.8h5.8v4.7h-5.8v9.5c0,1,0.2,1.8,0.7,2.1c0.5,0.4,1.2,0.6,2.3,0.6l0,0h2.7L936,663.3L936,663.3z M946.5,663.3H941
								v-31.4h5.6v13.1c0.7-1.2,1.7-2.1,3-2.8c1.2-0.7,2.6-1,4.2-1l0,0c2.7,0,4.8,0.8,6.2,2.5c1.5,1.7,2.2,4.2,2.2,7.4l0,0v12.2
								h-5.5v-11.7c0-1.9-0.4-3.3-1.1-4.3s-1.9-1.5-3.5-1.5l0,0c-1.6,0-2.9,0.5-3.9,1.6c-1,1.1-1.5,2.7-1.5,4.6l0,0L946.5,663.3
								L946.5,663.3z M974.9,663.8L974.9,663.8c-1.9,0-3.4-0.3-4.6-0.9c-1.2-0.6-2.1-1.4-2.7-2.4c-0.6-1-0.9-2.1-0.9-3.3l0,0
								c0-2,0.8-3.6,2.4-4.9s3.9-1.9,7.1-1.9l0,0h5.5V650c0-1.5-0.4-2.6-1.3-3.3c-0.8-0.7-1.9-1-3.1-1l0,0c-1.1,0-2.1,0.3-3,0.8
								c-0.8,0.5-1.4,1.3-1.6,2.4l0,0h-5.5c0.2-1.6,0.7-2.9,1.6-4.1c0.9-1.2,2.1-2.1,3.5-2.7s3.1-0.9,4.9-0.9l0,0
								c3.1,0,5.5,0.8,7.3,2.3c1.8,1.6,2.6,3.7,2.6,6.6l0,0v13.3h-4.8l-0.5-3.5c-0.7,1.2-1.5,2.1-2.7,2.9
								C978.2,663.4,976.7,663.8,974.9,663.8z M976.2,659.4L976.2,659.4c1.6,0,2.8-0.5,3.7-1.6c0.9-1,1.5-2.3,1.7-3.9l0,0h-4.8
								c-1.5,0-2.5,0.3-3.2,0.8c-0.7,0.6-1,1.2-1,2l0,0c0,0.9,0.3,1.5,1,2C974.3,659.2,975.1,659.4,976.2,659.4z M1015.8,663.3
								h-12.7v-30.5h12.2c3.2,0,5.6,0.7,7.3,2.2c1.7,1.5,2.5,3.3,2.5,5.6l0,0c0,1.9-0.5,3.5-1.5,4.6c-1,1.1-2.3,1.9-3.8,2.3l0,0
								c1.8,0.4,3.2,1.2,4.3,2.6c1.1,1.4,1.7,3,1.7,4.8l0,0c0,2.4-0.9,4.4-2.6,6C1021.5,662.5,1019,663.3,1015.8,663.3L1015.8,663.3
								z M1008.7,637.2v8.3h5.8c1.6,0,2.8-0.4,3.6-1.1c0.9-0.7,1.3-1.8,1.3-3.1l0,0c0-1.3-0.4-2.3-1.2-3c-0.8-0.8-2.1-1.1-3.7-1.1
								l0,0H1008.7L1008.7,637.2z M1008.7,649.7v9h6.2c1.6,0,3-0.4,3.9-1.2c0.9-0.8,1.4-1.8,1.4-3.2l0,0c0-1.4-0.5-2.5-1.5-3.3
								c-1-0.8-2.2-1.2-3.9-1.2l0,0H1008.7z M1038,663.8L1038,663.8c-1.8,0-3.4-0.3-4.6-0.9c-1.2-0.6-2.1-1.4-2.7-2.4
								c-0.6-1-0.9-2.1-0.9-3.3l0,0c0-2,0.8-3.6,2.3-4.9c1.6-1.2,3.9-1.9,7.1-1.9l0,0h5.5V650c0-1.5-0.4-2.6-1.3-3.3s-1.9-1-3.2-1
								l0,0c-1.1,0-2.1,0.3-3,0.8c-0.8,0.5-1.4,1.3-1.6,2.4l0,0h-5.4c0.2-1.6,0.7-2.9,1.6-4.1c0.9-1.2,2.1-2.1,3.6-2.7
								c1.4-0.6,3.1-0.9,4.9-0.9l0,0c3.1,0,5.5,0.8,7.3,2.3c1.8,1.6,2.7,3.7,2.7,6.6l0,0v13.3h-4.8l-0.5-3.5
								c-0.6,1.2-1.5,2.1-2.7,2.9C1041.3,663.4,1039.8,663.8,1038,663.8z M1039.3,659.4L1039.3,659.4c1.6,0,2.8-0.5,3.7-1.6
								c0.9-1,1.5-2.3,1.7-3.9l0,0h-4.8c-1.5,0-2.6,0.3-3.2,0.8c-0.6,0.6-0.9,1.2-0.9,2l0,0c0,0.9,0.3,1.5,0.9,2
								C1037.4,659.2,1038.2,659.4,1039.3,659.4z M1061.3,663.3h-5.6v-21.7h4.9l0.4,3.7c0.7-1.3,1.6-2.3,2.9-3
								c1.3-0.8,2.8-1.1,4.5-1.1l0,0c2.7,0,4.8,0.9,6.2,2.5s2.2,4.1,2.2,7.4l0,0v12.2h-5.6v-11.7c0-1.9-0.4-3.3-1.1-4.3
								s-1.9-1.5-3.5-1.5l0,0c-1.6,0-2.8,0.5-3.9,1.6c-1,1.1-1.5,2.7-1.5,4.6l0,0L1061.3,663.3L1061.3,663.3z M1087.8,663.3h-5.6
								v-31.4h5.6v18.5l7.7-8.8h6.6l-8.8,9.8l10.3,11.8h-7l-8.8-10.9V663.3z"/>
						</g>
					</g>
					<g transform="matrix(1,0,0,1,3.5,49.25414953619071)">
						<g transform="matrix(1,0,0,1,0,0)">
							<path id="text-1" class="st2" d="M813.1,640.2V628h3.1c2.4,0,4,1,4.8,3.1l0,0c0.3,0.8,0.4,1.7,0.4,2.9c0,1.2-0.1,2.2-0.4,3.1
								c-0.3,0.8-0.6,1.5-1.1,2c-0.5,0.5-1.1,0.8-1.8,1c-0.7,0.1-1.5,0.2-2.3,0.2l0,0L813.1,640.2L813.1,640.2z M816.1,629h-1.8
								v10.3h1.4c0.6,0,1.2-0.1,1.8-0.2l0,0c1.9-0.3,2.8-2,2.8-5.2l0,0c0-1.8-0.4-3-1.2-3.9l0,0C818.3,629.3,817.3,629,816.1,629
								L816.1,629z M836.6,631.5l1.1-0.1v8.8h-1.1V631.5z M837.1,629.2c-0.2,0-0.4-0.1-0.5-0.2s-0.2-0.4-0.2-0.6s0.1-0.4,0.2-0.6
								c0.1-0.1,0.3-0.2,0.5-0.2c0.2,0,0.4,0.1,0.6,0.2c0.2,0.2,0.2,0.4,0.2,0.6s-0.1,0.5-0.2,0.6
								C837.5,629.1,837.3,629.2,837.1,629.2z M854.1,636.8L854.1,636.8c-0.9-0.4-1.3-1.2-1.3-2.4l0,0c0-1,0.3-1.7,1-2.2
								c0.7-0.5,1.5-0.8,2.6-0.8l0,0c0.3,0,0.6,0,1,0.1l0,0l3.3-0.1l0,0.7h-1.9c0.7,0.5,1,1.2,1,2.1c0,1-0.3,1.7-1,2.2
								c-0.6,0.5-1.5,0.8-2.5,0.8l0,0c-0.7,0-1.2-0.1-1.6-0.2l0,0c-0.2,0.2-0.3,0.5-0.3,0.7l0,0c0,0.4,0.2,0.7,0.6,0.8
								c0.4,0.2,1,0.3,1.6,0.4l0,0c1.3,0.2,2.2,0.4,2.8,0.7l0,0c0.8,0.5,1.2,1.2,1.2,2.1c0,1-0.4,1.7-1.4,2.2l0,0
								c-0.7,0.3-1.5,0.5-2.5,0.5s-1.8-0.1-2.3-0.2l0,0c-1.4-0.4-2.1-1.2-2.1-2.2c0-1.1,0.6-2,1.8-2.8l0,0c-0.5-0.4-0.7-0.8-0.7-1.2
								C853.4,637.5,853.7,637.1,854.1,636.8z M859.5,641.9L859.5,641.9c0-0.8-0.5-1.3-1.5-1.6l0,0c-0.3-0.1-0.8-0.2-1.5-0.3
								c-0.7-0.1-1.3-0.2-1.7-0.4l0,0c-0.9,0.8-1.3,1.5-1.3,2.1l0,0c0,0.3,0,0.6,0.1,0.8c0.1,0.2,0.2,0.4,0.5,0.5l0,0
								c0.5,0.3,1.3,0.5,2.3,0.5l0,0c1.4,0,2.3-0.3,2.8-0.9l0,0C859.4,642.5,859.5,642.2,859.5,641.9z M858.5,634.2L858.5,634.2
								c0-1.2-0.7-1.9-2.2-1.9l0,0c-0.7,0-1.3,0.2-1.7,0.5c-0.5,0.3-0.7,0.8-0.7,1.4c0,0.7,0.1,1.2,0.5,1.5c0.3,0.4,0.9,0.5,1.7,0.5
								c0.8,0,1.4-0.2,1.8-0.5C858.3,635.4,858.5,634.9,858.5,634.2z M875.6,631.5l1.1-0.1v8.8h-1.1V631.5z M876.1,629.2
								c-0.2,0-0.4-0.1-0.5-0.2s-0.2-0.4-0.2-0.6s0.1-0.4,0.2-0.6c0.1-0.1,0.3-0.2,0.6-0.2c0.2,0,0.4,0.1,0.6,0.2
								c0.2,0.2,0.2,0.4,0.2,0.6s-0.1,0.5-0.2,0.6C876.6,629.1,876.4,629.2,876.1,629.2z M895.9,639l0.2,0.9
								c-0.2,0.2-0.6,0.3-1.1,0.3l0,0c-0.8,0-1.3-0.2-1.5-0.6l0,0c-0.5-0.4-0.7-1-0.7-1.8l0,0v-5.4h-1l0.2-1h0.8v-1.7l1.1-0.1v1.8h2
								v1h-2v5.6c0,0.7,0.3,1,1,1l0,0C895.3,639.2,895.6,639.1,895.9,639L895.9,639z M911,633.3l-0.3-0.8c1.3-0.6,2.4-1,3.3-1l0,0
								c0.8,0,1.3,0.1,1.8,0.3c0.4,0.2,0.8,0.5,1,0.8c0.2,0.4,0.4,0.8,0.4,1.4l0,0v6.2H916v-0.6c-1.6,0.5-2.6,0.7-3.1,0.7l0,0
								c0,0,0,0,0,0l0,0c-1.1,0-1.8-0.3-2.2-1l0,0c-0.1-0.2-0.2-0.4-0.2-0.7c0-0.2,0-0.4,0-0.5l0,0c0-0.4,0.2-0.8,0.5-1.1
								c0.3-0.3,0.7-0.5,1.2-0.7l0,0c0.8-0.2,2-0.4,3.9-0.5l0,0v-1.4c0-1.3-0.7-1.9-2-1.9l0,0C913.1,632.5,912.1,632.7,911,633.3
								L911,633.3z M911.6,638.2L911.6,638.2c0,0.8,0.6,1.2,1.7,1.2l0,0c0.9,0,1.8-0.2,2.7-0.6l0,0v-2.5c-1.8,0.2-2.9,0.5-3.4,0.6
								l0,0C911.9,637.2,911.6,637.6,911.6,638.2z M933.5,640.2h-1.1v-13l1.1-0.1V640.2z M972.5,633.2L972.5,633.2
								c1.3,0.5,1.9,1.5,1.9,3.2l0,0c0,0.9-0.1,1.5-0.3,2c-0.2,0.5-0.5,0.8-0.8,1.1l0,0c-0.6,0.5-1.7,0.7-3.1,0.7l0,0h-2.9v-12.2
								h2.6c1.8,0,3,0.5,3.5,1.4l0,0c0.2,0.3,0.2,0.7,0.2,1.2c0,0.5-0.1,1-0.4,1.4C973.1,632.5,972.8,632.9,972.5,633.2z
								 M970.5,633.9h-2v5.3h1.6c1.1,0,1.8-0.1,2.3-0.4l0,0c0.6-0.3,0.8-1.1,0.8-2.1l0,0c0-1.5-0.5-2.3-1.5-2.6l0,0
								C971.3,633.9,971,633.9,970.5,633.9L970.5,633.9z M971.6,633L971.6,633c0.6-0.8,0.8-1.5,0.8-2.2c0-0.7-0.2-1.2-0.7-1.4
								s-1.1-0.4-2-0.4l0,0h-1.3v3.9h2.1C971,632.9,971.3,633,971.6,633z M989.4,633.3l-0.3-0.8c1.3-0.6,2.4-1,3.3-1l0,0
								c0.8,0,1.3,0.1,1.8,0.3c0.4,0.2,0.8,0.5,1,0.8c0.2,0.4,0.4,0.8,0.4,1.4l0,0v6.2h-1.1v-0.6c-1.6,0.5-2.6,0.7-3.1,0.7l0,0
								c0,0,0,0,0,0l0,0c-1,0-1.8-0.3-2.1-1l0,0c-0.2-0.2-0.2-0.4-0.2-0.7c0-0.2,0-0.4,0-0.5l0,0c0-0.4,0.1-0.8,0.5-1.1
								s0.7-0.5,1.2-0.7l0,0c0.8-0.2,2-0.4,3.9-0.5l0,0v-1.4c0-1.3-0.6-1.9-2-1.9l0,0C991.5,632.5,990.5,632.7,989.4,633.3
								L989.4,633.3z M989.9,638.2L989.9,638.2c0,0.8,0.6,1.2,1.7,1.2l0,0c0.9,0,1.8-0.2,2.7-0.6l0,0v-2.5c-1.8,0.2-2.9,0.5-3.4,0.6
								l0,0C990.3,637.2,989.9,637.6,989.9,638.2z M1011.7,631.4v1.1c0.9-0.7,1.7-1,2.5-1l0,0c0.7,0,1.2,0.1,1.6,0.2
								c0.4,0.2,0.7,0.4,1,0.8c0.2,0.3,0.4,0.8,0.4,1.3l0,0v6.4h-1.1v-6.1c0-0.4-0.1-0.8-0.3-1l0,0c-0.4-0.4-1-0.7-1.7-0.7l0,0
								c-0.7,0-1.5,0.3-2.3,0.7l0,0v7h-1.1v-8.7L1011.7,631.4z M1034,627.2v13.1h-1.1v-13L1034,627.2z M1034,635.6l3.5-4.1h1.3
								l-3.7,4.1l4.1,4.6l-1.3,0.1L1034,635.6z M1053.8,631.5l1.1-0.1v8.8h-1.1V631.5z M1054.3,629.2c-0.2,0-0.4-0.1-0.5-0.2
								s-0.2-0.4-0.2-0.6s0.1-0.4,0.2-0.6c0.1-0.1,0.3-0.2,0.5-0.2s0.4,0.1,0.6,0.2c0.2,0.2,0.2,0.4,0.2,0.6s-0.1,0.5-0.2,0.6
								C1054.8,629.1,1054.6,629.2,1054.3,629.2z M1071.7,631.4v1.1c0.9-0.7,1.7-1,2.5-1l0,0c0.7,0,1.2,0.1,1.6,0.2
								c0.4,0.2,0.7,0.4,1,0.8c0.2,0.3,0.4,0.8,0.4,1.3l0,0v6.4h-1.1v-6.1c0-0.4-0.1-0.8-0.3-1l0,0c-0.4-0.4-1-0.7-1.7-0.7l0,0
								c-0.7,0-1.5,0.3-2.3,0.7l0,0v7h-1.1v-8.7L1071.7,631.4z M1093.8,636.8L1093.8,636.8c-0.8-0.4-1.3-1.2-1.3-2.4l0,0
								c0-1,0.3-1.7,1-2.2c0.7-0.5,1.5-0.8,2.6-0.8l0,0c0.3,0,0.6,0,1,0.1l0,0l3.3-0.1l0,0.7h-1.9c0.7,0.5,1,1.2,1,2.1
								c0,1-0.3,1.7-1,2.2c-0.7,0.5-1.4,0.8-2.5,0.8l0,0c-0.7,0-1.2-0.1-1.6-0.2l0,0c-0.2,0.2-0.3,0.5-0.3,0.7l0,0
								c0,0.4,0.2,0.7,0.7,0.8c0.4,0.2,1,0.3,1.6,0.4l0,0c1.3,0.2,2.2,0.4,2.8,0.7l0,0c0.8,0.5,1.2,1.2,1.2,2.1c0,1-0.4,1.7-1.4,2.2
								l0,0c-0.7,0.3-1.5,0.5-2.5,0.5c-1,0-1.8-0.1-2.3-0.2l0,0c-1.4-0.4-2.1-1.2-2.1-2.2c0-1.1,0.6-2,1.9-2.8l0,0
								c-0.5-0.4-0.7-0.8-0.7-1.2C1093.1,637.5,1093.3,637.1,1093.8,636.8z M1099.2,641.9L1099.2,641.9c0-0.8-0.5-1.3-1.5-1.6l0,0
								c-0.3-0.1-0.8-0.2-1.5-0.3s-1.3-0.2-1.7-0.4l0,0c-0.9,0.8-1.4,1.5-1.4,2.1l0,0c0,0.3,0.1,0.6,0.2,0.8
								c0.1,0.2,0.2,0.4,0.5,0.5l0,0c0.5,0.3,1.3,0.5,2.3,0.5l0,0c1.4,0,2.3-0.3,2.8-0.9l0,0
								C1099.1,642.5,1099.2,642.2,1099.2,641.9z M1098.2,634.2L1098.2,634.2c0-1.2-0.7-1.9-2.2-1.9l0,0c-0.7,0-1.3,0.2-1.7,0.5
								c-0.4,0.3-0.7,0.8-0.7,1.4c0,0.7,0.1,1.2,0.5,1.5c0.3,0.4,0.9,0.5,1.7,0.5c0.8,0,1.4-0.2,1.8-0.5
								C1098,635.4,1098.2,634.9,1098.2,634.2z"/>
						</g>
					</g>
				</g>
			</g>
		</g>
	</g>
</g>
</svg>
